<svg width="14" height="14" viewBox="0 0 14 14" fill="none" xmlns="http://www.w3.org/2000/svg">
<path id="Vector" d="M13.0007 8V8.66667C13.0007 9.94 12.2873 11.0467 11.234 11.6067L11.6673 13.3333H10.334L10.0007 12H4.00065L3.66732 13.3333H2.33398L2.76732 11.6067C2.23344 11.3235 1.78686 10.9001 1.47558 10.3821C1.1643 9.86407 1.00011 9.27101 1.00065 8.66667V8H0.333984V6.66667H12.334V2C12.334 1.82319 12.2637 1.65362 12.1387 1.5286C12.0137 1.40357 11.8441 1.33333 11.6673 1.33333C11.334 1.33333 11.0807 1.56 11.0007 1.86C11.4207 2.22 11.6673 2.75333 11.6673 3.33333H7.66732C7.66732 2.8029 7.87803 2.29419 8.2531 1.91912C8.62818 1.54405 9.13688 1.33333 9.66732 1.33333H9.78065C10.054 0.56 10.794 0 11.6673 0C12.1978 0 12.7065 0.210714 13.0815 0.585786C13.4566 0.960859 13.6673 1.46957 13.6673 2V8H13.0007ZM11.6673 8H2.33398V8.66667C2.33398 9.1971 2.5447 9.70581 2.91977 10.0809C3.29484 10.456 3.80355 10.6667 4.33398 10.6667H9.66732C10.1978 10.6667 10.7065 10.456 11.0815 10.0809C11.4566 9.70581 11.6673 9.1971 11.6673 8.66667V8Z" fill="#0A111F"/>
</svg>
