<svg width="14" height="10" viewBox="0 0 14 10" fill="none" xmlns="http://www.w3.org/2000/svg">
<path id="Vector" d="M12.6667 4.18732V2.33398C12.6667 1.23398 11.7667 0.333984 10.6667 0.333984H8C7.48667 0.333984 7.02 0.533985 6.66667 0.853984C6.31333 0.533985 5.84667 0.333984 5.33333 0.333984H2.66667C1.56667 0.333984 0.666667 1.23398 0.666667 2.33398V4.18732C0.26 4.55398 0 5.08065 0 5.66732V9.00065C0 9.36732 0.3 9.66732 0.666667 9.66732C1.03333 9.66732 1.33333 9.36732 1.33333 9.00065V8.33398H12V9.00065C12 9.36732 12.3 9.66732 12.6667 9.66732C13.0333 9.66732 13.3333 9.36732 13.3333 9.00065V5.66732C13.3333 5.08065 13.0733 4.55398 12.6667 4.18732ZM8 1.66732H10.6667C11.0333 1.66732 11.3333 1.96732 11.3333 2.33398V3.66732H7.33333V2.33398C7.33333 1.96732 7.63333 1.66732 8 1.66732ZM2 2.33398C2 1.96732 2.3 1.66732 2.66667 1.66732H5.33333C5.7 1.66732 6 1.96732 6 2.33398V3.66732H2V2.33398ZM1.33333 7.00065V5.66732C1.33333 5.30065 1.63333 5.00065 2 5.00065H11.3333C11.7 5.00065 12 5.30065 12 5.66732V7.00065H1.33333Z" fill="#0A111F"/>
</svg>
