<svg width="48" height="48" viewBox="0 0 48 48" fill="none" xmlns="http://www.w3.org/2000/svg">
<g id="vuesax/linear/convert-3d-cube">
<g id="convert-3d-cube">
<g id="Group">
<path id="Vector" d="M44 30C44 37.74 37.74 44 30 44L32.1 40.5" stroke="#3772FF" stroke-width="2" stroke-linecap="round" stroke-linejoin="round"/>
<path id="Vector_2" d="M4 18C4 10.26 10.26 4 18 4L15.9 7.5" stroke="#3772FF" stroke-width="2" stroke-linecap="round" stroke-linejoin="round"/>
</g>
<g id="Group_2">
<g id="Group_3">
<path id="Vector_3" d="M27.3984 8.90039L35.3584 13.5004L43.2384 8.92041" stroke="#3772FF" stroke-width="2" stroke-linecap="round" stroke-linejoin="round"/>
<path id="Vector_4" d="M35.3594 21.6405V13.4805" stroke="#3772FF" stroke-width="2" stroke-linecap="round" stroke-linejoin="round"/>
</g>
<path id="Vector_5" d="M33.4792 4.42L28.6792 7.07991C27.5992 7.67991 26.6992 9.1999 26.6992 10.4399V15.52C26.6992 16.76 27.5792 18.28 28.6792 18.88L33.4792 21.54C34.4992 22.12 36.1792 22.12 37.2192 21.54L42.0192 18.88C43.0992 18.28 43.9992 16.76 43.9992 15.52V10.4399C43.9992 9.1999 43.1192 7.67991 42.0192 7.07991L37.2192 4.42C36.1992 3.86 34.5192 3.86 33.4792 4.42Z" stroke="#3772FF" stroke-width="2" stroke-linecap="round" stroke-linejoin="round"/>
</g>
<g id="Group_4">
<g id="Group_5">
<path id="Vector_6" d="M4.69922 30.9004L12.6392 35.5004L20.5392 30.9204" stroke="#3772FF" stroke-width="2" stroke-linecap="round" stroke-linejoin="round"/>
<path id="Vector_7" d="M12.6387 43.6405V35.4805" stroke="#3772FF" stroke-width="2" stroke-linecap="round" stroke-linejoin="round"/>
</g>
<path id="Vector_8" d="M10.78 26.42L5.98001 29.0799C4.90001 29.6799 4 31.1999 4 32.4399V37.52C4 38.76 4.88001 40.28 5.98001 40.88L10.78 43.54C11.8 44.12 13.48 44.12 14.52 43.54L19.32 40.88C20.4 40.28 21.3 38.76 21.3 37.52V32.4399C21.3 31.1999 20.42 29.6799 19.32 29.0799L14.52 26.42C13.48 25.86 11.8 25.86 10.78 26.42Z" stroke="#3772FF" stroke-width="2" stroke-linecap="round" stroke-linejoin="round"/>
</g>
</g>
</g>
</svg>
