<svg width="48" height="48" viewBox="0 0 48 48" fill="none" xmlns="http://www.w3.org/2000/svg">
<g id="vuesax/linear/direct-inbox">
<g id="direct-inbox">
<path id="Vector" d="M24 4V18L28 14" stroke="#3772FF" stroke-width="2" stroke-linecap="round" stroke-linejoin="round"/>
<path id="Vector_2" d="M24 18L20 14" stroke="#3772FF" stroke-width="2" stroke-linecap="round" stroke-linejoin="round"/>
<path id="Vector_3" d="M3.96094 26H12.7809C13.5409 26 14.2209 26.42 14.5609 27.1L16.9009 31.78C17.5809 33.14 18.9609 34 20.4809 34H27.5409C29.0609 34 30.4409 33.14 31.1209 31.78L33.4609 27.1C33.8009 26.42 34.5009 26 35.2409 26H43.9609" stroke="#3772FF" stroke-width="2" stroke-linecap="round" stroke-linejoin="round"/>
<path id="Vector_4" d="M14 8.25977C6.92 9.29977 4 13.4598 4 21.9998V29.9998C4 39.9998 8 43.9998 18 43.9998H30C40 43.9998 44 39.9998 44 29.9998V21.9998C44 13.4598 41.08 9.29977 34 8.25977" stroke="#3772FF" stroke-width="2" stroke-linecap="round" stroke-linejoin="round"/>
</g>
</g>
</svg>
