<svg width="60" height="60" viewBox="0 0 60 60" fill="none" xmlns="http://www.w3.org/2000/svg">
<g id="ep:view">
<path id="Vector" d="M30 9.375C48.75 9.375 60 30 60 30C60 30 48.75 50.625 30 50.625C11.25 50.625 0 30 0 30C0 30 11.25 9.375 30 9.375ZM30 13.125C16.8 13.125 7.4925 25.3162 4.40625 30C7.48875 34.68 16.7962 46.875 30 46.875C43.2 46.875 52.5075 34.6838 55.5938 30C52.5112 25.32 43.2038 13.125 30 13.125ZM30 16.875C33.481 16.875 36.8194 18.2578 39.2808 20.7192C41.7422 23.1806 43.125 26.519 43.125 30C43.125 33.481 41.7422 36.8194 39.2808 39.2808C36.8194 41.7422 33.481 43.125 30 43.125C26.519 43.125 23.1806 41.7422 20.7192 39.2808C18.2578 36.8194 16.875 33.481 16.875 30C16.875 26.519 18.2578 23.1806 20.7192 20.7192C23.1806 18.2578 26.519 16.875 30 16.875ZM30 20.625C27.5145 20.628 25.1317 21.6167 23.3742 23.3742C21.6167 25.1317 20.628 27.5145 20.625 30C20.625 35.1675 24.8288 39.375 30 39.375C35.1712 39.375 39.375 35.1675 39.375 30C39.375 24.8325 35.1712 20.625 30 20.625Z" fill="#3772FF"/>
</g>
</svg>
