<svg width="22" height="28" viewBox="0 0 22 28" fill="none" xmlns="http://www.w3.org/2000/svg">
<g id="Group">
<path id="Vector" d="M3.5 22.75V11.5C3.5 9.51088 4.29018 7.60322 5.6967 6.1967C7.10322 4.79018 9.01088 4 11 4C12.9891 4 14.8968 4.79018 16.3033 6.1967C17.7098 7.60322 18.5 9.51088 18.5 11.5V22.75M3.5 22.75H18.5M3.5 22.75H1M18.5 22.75H21M9.75 26.5H12.25" stroke="#14213D" stroke-width="2" stroke-linecap="round" stroke-linejoin="round"/>
<path id="Vector_2" d="M11 4C11.6904 4 12.25 3.44036 12.25 2.75C12.25 2.05964 11.6904 1.5 11 1.5C10.3096 1.5 9.75 2.05964 9.75 2.75C9.75 3.44036 10.3096 4 11 4Z" stroke="#14213D" stroke-width="2"/>
<circle id="Ellipse 2" cx="16" cy="5.5" r="4" fill="#FCA311"/>
</g>
</svg>
