<svg width="61" height="60" viewBox="0 0 61 60" fill="none" xmlns="http://www.w3.org/2000/svg">
<g id="material-symbols:reviews-outline">
<path id="Vector" d="M23.1875 35.625L30.5 31.1875L37.8125 35.625L35.875 27.3125L42.375 21.6875L33.8125 21L30.5 13.125L27.1875 21L18.625 21.6875L25.125 27.3125L23.1875 35.625ZM5.5 55V10C5.5 8.625 5.99 7.4475 6.97 6.4675C7.95 5.4875 9.12667 4.99834 10.5 5H50.5C51.875 5 53.0525 5.49 54.0325 6.47C55.0125 7.45 55.5017 8.62667 55.5 10V40C55.5 41.375 55.01 42.5525 54.03 43.5325C53.05 44.5125 51.8733 45.0017 50.5 45H15.5L5.5 55ZM13.375 40H50.5V10H10.5V42.8125L13.375 40Z" fill="#3772FF"/>
</g>
</svg>
