<svg width="48" height="48" viewBox="0 0 48 48" fill="none" xmlns="http://www.w3.org/2000/svg">
<g id="mdi:google">
<path id="Vector" d="M42.7005 22.2H24.3605V27.66H37.3805C36.7205 35.28 30.3805 38.54 24.3805 38.54C16.7205 38.54 10.0005 32.5 10.0005 24C10.0005 15.8 16.4005 9.46 24.4005 9.46C30.5805 9.46 34.2005 13.4 34.2005 13.4L38.0005 9.44C38.0005 9.44 33.1205 4 24.2005 4C12.8405 4 4.06055 13.6 4.06055 24C4.06055 34.1 12.3205 44 24.5005 44C35.2005 44 43.0005 36.66 43.0005 25.82C43.0005 23.52 42.7005 22.2 42.7005 22.2Z" fill="#3772FF"/>
</g>
</svg>
