<svg width="14" height="13" viewBox="0 0 14 13" fill="none" xmlns="http://www.w3.org/2000/svg">
<g id="Property 1=Frame 5973">
<path id="Vector" d="M10.0985 0C8.76464 0 7.62491 0.950731 6.99873 1.60619C6.37255 0.950731 5.23536 0 3.90218 0C1.60427 0 0 1.60173 0 3.89456C0 6.42093 1.99245 8.05385 3.92 9.63331C4.83 10.3798 5.77182 11.151 6.49409 12.0063C6.61564 12.1495 6.79382 12.2322 6.98091 12.2322H7.01782C7.20555 12.2322 7.38309 12.1489 7.504 12.0063C8.22754 11.151 9.16873 10.3791 10.0794 9.63331C12.0063 8.05448 14 6.42157 14 3.89456C14 1.60173 12.3957 0 10.0985 0Z" fill="#3772FF"/>
</g>
</svg>
