<svg width="21" height="20" viewBox="0 0 21 20" fill="none" xmlns="http://www.w3.org/2000/svg">
<path id="Vector" d="M7.74922 20L7.34922 16.8C7.13255 16.7167 6.92822 16.6167 6.73622 16.5C6.54422 16.3833 6.35689 16.2583 6.17422 16.125L3.19922 17.375L0.449219 12.625L3.02422 10.675C3.00755 10.5583 2.99922 10.4457 2.99922 10.337V9.663C2.99922 9.55433 3.00755 9.44167 3.02422 9.325L0.449219 7.375L3.19922 2.625L6.17422 3.875C6.35755 3.74167 6.54922 3.61667 6.74922 3.5C6.94922 3.38333 7.14922 3.28333 7.34922 3.2L7.74922 0H13.2492L13.6492 3.2C13.8659 3.28333 14.0702 3.38333 14.2622 3.5C14.4542 3.61667 14.6416 3.74167 14.8242 3.875L17.7992 2.625L20.5492 7.375L17.9742 9.325C17.9909 9.44167 17.9992 9.55433 17.9992 9.663V10.337C17.9992 10.4457 17.9826 10.5583 17.9492 10.675L20.5242 12.625L17.7742 17.375L14.8242 16.125C14.6409 16.2583 14.4492 16.3833 14.2492 16.5C14.0492 16.6167 13.8492 16.7167 13.6492 16.8L13.2492 20H7.74922ZM10.5492 13.5C11.5159 13.5 12.3409 13.1583 13.0242 12.475C13.7076 11.7917 14.0492 10.9667 14.0492 10C14.0492 9.03333 13.7076 8.20833 13.0242 7.525C12.3409 6.84167 11.5159 6.5 10.5492 6.5C9.56589 6.5 8.73655 6.84167 8.06122 7.525C7.38589 8.20833 7.04855 9.03333 7.04922 10C7.04922 10.9667 7.38655 11.7917 8.06122 12.475C8.73589 13.1583 9.56522 13.5 10.5492 13.5ZM10.5492 11.5C10.1326 11.5 9.77822 11.354 9.48622 11.062C9.19422 10.77 9.04855 10.416 9.04922 10C9.04922 9.58333 9.19522 9.229 9.48722 8.937C9.77922 8.645 10.1332 8.49933 10.5492 8.5C10.9659 8.5 11.3202 8.646 11.6122 8.938C11.9042 9.23 12.0499 9.584 12.0492 10C12.0492 10.4167 11.9032 10.771 11.6112 11.063C11.3192 11.355 10.9652 11.5007 10.5492 11.5ZM9.49922 18H11.4742L11.8242 15.35C12.3409 15.2167 12.8202 15.0207 13.2622 14.762C13.7042 14.5033 14.1082 14.191 14.4742 13.825L16.9492 14.85L17.9242 13.15L15.7742 11.525C15.8576 11.2917 15.9159 11.046 15.9492 10.788C15.9826 10.53 15.9992 10.2673 15.9992 10C15.9992 9.73333 15.9826 9.471 15.9492 9.213C15.9159 8.955 15.8576 8.709 15.7742 8.475L17.9242 6.85L16.9492 5.15L14.4742 6.2C14.1076 5.81667 13.7036 5.496 13.2622 5.238C12.8209 4.98 12.3416 4.784 11.8242 4.65L11.4992 2H9.52422L9.17422 4.65C8.65755 4.78333 8.17855 4.97933 7.73722 5.238C7.29589 5.49667 6.89155 5.809 6.52422 6.175L4.04922 5.15L3.07422 6.85L5.22422 8.45C5.14088 8.7 5.08255 8.95 5.04922 9.2C5.01589 9.45 4.99922 9.71667 4.99922 10C4.99922 10.2667 5.01589 10.525 5.04922 10.775C5.08255 11.025 5.14088 11.275 5.22422 11.525L3.07422 13.15L4.04922 14.85L6.52422 13.8C6.89089 14.1833 7.29522 14.5043 7.73722 14.763C8.17922 15.0217 8.65822 15.2173 9.17422 15.35L9.49922 18Z" fill="#FBFFFE"/>
</svg>
