<svg width="25" height="24" viewBox="0 0 25 24" fill="none" xmlns="http://www.w3.org/2000/svg">
<g id="vuesax/linear/share">
<g id="share">
<path id="Vector" d="M17.7949 6.16992C19.7949 7.55992 21.1749 9.76992 21.4549 12.3199" stroke="#3772FF" stroke-width="1.5" stroke-linecap="round" stroke-linejoin="round"/>
<path id="Vector_2" d="M4.32422 12.3707C4.58422 9.8307 5.94422 7.6207 7.92422 6.2207" stroke="#3772FF" stroke-width="1.5" stroke-linecap="round" stroke-linejoin="round"/>
<path id="Vector_3" d="M9.02344 20.9395C10.1834 21.5295 11.5034 21.8595 12.8934 21.8595C14.2334 21.8595 15.4934 21.5595 16.6234 21.0095" stroke="#3772FF" stroke-width="1.5" stroke-linecap="round" stroke-linejoin="round"/>
<path id="Vector_4" d="M12.8933 7.70062C14.4286 7.70062 15.6733 6.45598 15.6733 4.92062C15.6733 3.38527 14.4286 2.14062 12.8933 2.14062C11.3579 2.14062 10.1133 3.38527 10.1133 4.92062C10.1133 6.45598 11.3579 7.70062 12.8933 7.70062Z" stroke="#3772FF" stroke-width="1.5" stroke-linecap="round" stroke-linejoin="round"/>
<path id="Vector_5" d="M5.66477 19.9194C7.20012 19.9194 8.44477 18.6747 8.44477 17.1394C8.44477 15.604 7.20012 14.3594 5.66477 14.3594C4.12941 14.3594 2.88477 15.604 2.88477 17.1394C2.88477 18.6747 4.12941 19.9194 5.66477 19.9194Z" stroke="#3772FF" stroke-width="1.5" stroke-linecap="round" stroke-linejoin="round"/>
<path id="Vector_6" d="M20.0046 19.9194C21.54 19.9194 22.7846 18.6747 22.7846 17.1394C22.7846 15.604 21.54 14.3594 20.0046 14.3594C18.4693 14.3594 17.2246 15.604 17.2246 17.1394C17.2246 18.6747 18.4693 19.9194 20.0046 19.9194Z" stroke="#3772FF" stroke-width="1.5" stroke-linecap="round" stroke-linejoin="round"/>
</g>
</g>
</svg>
