<svg width="25" height="24" viewBox="0 0 25 24" fill="none" xmlns="http://www.w3.org/2000/svg">
<g id="vuesax/linear/star">
<g id="star">
<path id="Vector" d="M14.3969 3.51063L16.1569 7.03063C16.3969 7.52063 17.0369 7.99063 17.5769 8.08063L20.7669 8.61062C22.8069 8.95062 23.2869 10.4306 21.8169 11.8906L19.3369 14.3706C18.9169 14.7906 18.6869 15.6006 18.8169 16.1806L19.5269 19.2506C20.0869 21.6806 18.7969 22.6206 16.6469 21.3506L13.6569 19.5806C13.1169 19.2606 12.2269 19.2606 11.6769 19.5806L8.6869 21.3506C6.5469 22.6206 5.2469 21.6706 5.8069 19.2506L6.5169 16.1806C6.6469 15.6006 6.4169 14.7906 5.9969 14.3706L3.5169 11.8906C2.0569 10.4306 2.5269 8.95062 4.5669 8.61062L7.7569 8.08063C8.2869 7.99063 8.9269 7.52063 9.1669 7.03063L10.9269 3.51063C11.8869 1.60063 13.4469 1.60063 14.3969 3.51063Z" stroke="#3772FF" stroke-width="1.5" stroke-linecap="round" stroke-linejoin="round"/>
</g>
</g>
</svg>
