<svg width="25" height="24" viewBox="0 0 25 24" fill="none" xmlns="http://www.w3.org/2000/svg">
<g id="vuesax/linear/star">
<g id="star">
<path id="Vector" d="M14.2309 3.51063L15.9909 7.03063C16.2309 7.52063 16.8709 7.99063 17.4109 8.08063L20.6009 8.61062C22.6409 8.95062 23.1209 10.4306 21.6509 11.8906L19.1709 14.3706C18.7509 14.7906 18.5209 15.6006 18.6509 16.1806L19.3609 19.2506C19.9209 21.6806 18.6309 22.6206 16.4809 21.3506L13.4909 19.5806C12.9509 19.2606 12.0609 19.2606 11.5109 19.5806L8.52089 21.3506C6.38089 22.6206 5.08089 21.6706 5.64089 19.2506L6.35089 16.1806C6.48089 15.6006 6.25089 14.7906 5.83089 14.3706L3.35089 11.8906C1.89089 10.4306 2.36089 8.95062 4.40089 8.61062L7.59089 8.08063C8.12089 7.99063 8.76089 7.52063 9.00089 7.03063L10.7609 3.51063C11.7209 1.60063 13.2809 1.60063 14.2309 3.51063Z" stroke="#FBFFFE" stroke-width="1.5" stroke-linecap="round" stroke-linejoin="round"/>
</g>
</g>
</svg>
