<svg width="81" height="80" viewBox="0 0 81 80" fill="none" xmlns="http://www.w3.org/2000/svg">
<g id="streamline-emojis:smiling-face-with-sunglasses" clip-path="url(#clip0_743_1188)">
<path id="Vector" d="M13.5664 34.434C13.5664 42.6822 16.843 50.5926 22.6754 56.425C28.5078 62.2574 36.4182 65.534 44.6664 65.534C52.9146 65.534 60.825 62.2574 66.6574 56.425C72.4898 50.5926 75.7664 42.6822 75.7664 34.434C75.7664 26.1858 72.4898 18.2753 66.6574 12.443C60.825 6.61058 52.9146 3.33398 44.6664 3.33398C36.4182 3.33398 28.5078 6.61058 22.6754 12.443C16.843 18.2753 13.5664 26.1858 13.5664 34.434Z" fill="#FCA311"/>
<path id="Vector_2" d="M44.6664 3.33399C38.5154 3.33399 32.5026 5.15797 27.3882 8.57528C22.2738 11.9926 18.2877 16.8498 15.9338 22.5325C13.5799 28.2153 12.964 34.4685 14.164 40.5013C15.364 46.5341 18.326 52.0756 22.6754 56.425C27.0248 60.7744 32.5663 63.7364 38.5991 64.9364C44.6319 66.1364 50.8851 65.5205 56.5679 63.1666C62.2507 60.8128 67.1078 56.8266 70.5251 51.7122C73.9424 46.5979 75.7664 40.585 75.7664 34.434C75.7686 30.3493 74.9657 26.3042 73.4035 22.5299C71.8414 18.7557 69.5507 15.3264 66.6623 12.4381C63.774 9.54974 60.3447 7.25902 56.5705 5.69687C52.7963 4.13473 48.7511 3.3318 44.6664 3.33399ZM44.6664 60.8673C39.0626 60.8673 33.5847 59.2056 28.9253 56.0923C24.2659 52.979 20.6343 48.5539 18.4898 43.3767C16.3454 38.1994 15.7843 32.5026 16.8775 27.0064C17.9708 21.5103 20.6692 16.4618 24.6317 12.4993C28.5942 8.53681 33.6427 5.83832 39.1389 4.74507C44.635 3.65182 50.3319 4.21292 55.5091 6.3574C60.6864 8.50188 65.1114 12.1334 68.2247 16.7928C71.338 21.4522 72.9998 26.9302 72.9998 32.534C72.9998 40.0485 70.0146 47.2551 64.7011 52.5687C59.3876 57.8822 52.1809 60.8673 44.6664 60.8673Z" fill="#D2880E"/>
<path id="Vector_3" d="M35.334 9.55013C35.334 9.85655 35.5754 10.16 36.0444 10.4431C36.5135 10.7262 37.201 10.9834 38.0677 11.2C38.9343 11.4167 39.9632 11.5886 41.0956 11.7058C42.228 11.8231 43.4416 11.8835 44.6673 11.8835C45.893 11.8835 47.1067 11.8231 48.239 11.7058C49.3714 11.5886 50.4003 11.4167 51.267 11.2C52.1337 10.9834 52.8211 10.7262 53.2902 10.4431C53.7592 10.16 54.0006 9.85655 54.0006 9.55013C54.0006 9.24371 53.7592 8.94029 53.2902 8.6572C52.8211 8.37411 52.1337 8.11688 51.267 7.90021C50.4003 7.68354 49.3714 7.51167 48.239 7.39441C47.1067 7.27715 45.893 7.2168 44.6673 7.2168C43.4416 7.2168 42.228 7.27715 41.0956 7.39441C39.9632 7.51167 38.9343 7.68354 38.0677 7.90021C37.201 8.11688 36.5135 8.37411 36.0444 8.6572C35.5754 8.94029 35.334 9.24371 35.334 9.55013Z" fill="#FED188"/>
<path id="Vector_4" d="M13.6007 65.6827C13.7606 65.0034 14.1077 64.3826 14.6026 63.8906C15.0975 63.3986 15.7204 63.0552 16.4007 62.8993L22.0173 61.666C22.1172 61.6402 22.2057 61.5821 22.269 61.5007C22.3323 61.4193 22.3669 61.3192 22.3673 61.216C22.3678 61.1107 22.3338 61.0082 22.2707 60.9239C22.2075 60.8397 22.1185 60.7784 22.0173 60.7493L16.4007 59.466C15.7192 59.307 15.0958 58.9605 14.6009 58.4657C14.1061 57.9709 13.7596 57.3475 13.6007 56.666L12.3007 51.0493C12.2736 50.9508 12.2149 50.8638 12.1336 50.8018C12.0523 50.7399 11.9529 50.7063 11.8507 50.7063C11.7484 50.7063 11.649 50.7399 11.5677 50.8018C11.4864 50.8638 11.4277 50.9508 11.4007 51.0493L10.1007 56.666C9.94167 57.3475 9.59518 57.9709 9.10036 58.4657C8.60554 58.9605 7.98213 59.307 7.30065 59.466L1.70065 60.7493C1.59635 60.7753 1.50366 60.8353 1.43726 60.9198C1.37085 61.0043 1.33451 61.1085 1.33398 61.216C1.3353 61.3214 1.37226 61.4232 1.43884 61.505C1.50542 61.5867 1.5977 61.6434 1.70065 61.666L7.30065 62.966C7.98254 63.1183 8.60739 63.4604 9.10291 63.953C9.59842 64.4456 9.94434 65.0684 10.1007 65.7494L11.4007 71.366C11.4277 71.4646 11.4864 71.5516 11.5677 71.6135C11.649 71.6755 11.7484 71.7091 11.8507 71.7091C11.9529 71.7091 12.0523 71.6755 12.1336 71.6135C12.2149 71.5516 12.2736 71.4646 12.3007 71.366L13.6007 65.6827ZM75.0007 9.99935L79.384 8.53268C79.4648 8.50544 79.5352 8.45408 79.5859 8.38553C79.6366 8.31699 79.665 8.23455 79.6673 8.14935C79.666 8.06187 79.6382 7.97683 79.5877 7.90544C79.5371 7.83404 79.4661 7.77962 79.384 7.74935L75.7673 6.66602C75.5261 6.58189 75.3075 6.44344 75.1283 6.26138C74.9492 6.07932 74.8142 5.85852 74.734 5.61602L73.534 2.01602C73.5156 1.92154 73.4664 1.83586 73.394 1.77249C73.3215 1.70911 73.2301 1.67165 73.134 1.66602C73.0488 1.66836 72.9663 1.69679 72.8978 1.74745C72.8293 1.79812 72.7779 1.86858 72.7506 1.94935L71.5507 5.54935C71.4778 5.80591 71.3444 6.04124 71.1616 6.23555C70.9789 6.42986 70.7523 6.57748 70.5007 6.66602L66.884 7.86601C66.8019 7.89629 66.7309 7.95071 66.6803 8.0221C66.6298 8.0935 66.602 8.17853 66.6007 8.26602C66.603 8.35122 66.6314 8.43366 66.6821 8.5022C66.7328 8.57075 66.8032 8.62211 66.884 8.64935L70.5007 9.78268C70.7449 9.86463 70.9669 10.0021 71.149 10.1843C71.3312 10.3665 71.4687 10.5884 71.5507 10.8327L72.7506 14.4493C72.7779 14.5301 72.8293 14.6006 72.8978 14.6512C72.9663 14.7019 73.0488 14.7303 73.134 14.7327C73.2215 14.7314 73.3065 14.7036 73.3779 14.653C73.4493 14.6024 73.5037 14.5314 73.534 14.4493L75.0007 9.99935Z" fill="white" stroke="#45413C" stroke-linecap="round" stroke-linejoin="round"/>
<path id="Vector_5" opacity="0.15" d="M19.0996 74.1836C19.0996 74.5119 19.7432 74.837 20.9937 75.1403C22.2442 75.4436 24.0771 75.7192 26.3878 75.9514C28.6984 76.1835 31.4415 76.3677 34.4605 76.4933C37.4795 76.6189 40.7152 76.6836 43.9829 76.6836C47.2507 76.6836 50.4864 76.6189 53.5054 76.4933C56.5244 76.3677 59.2675 76.1835 61.5781 75.9514C63.8888 75.7192 65.7216 75.4436 66.9721 75.1403C68.2227 74.837 68.8663 74.5119 68.8663 74.1836C68.8663 73.5206 66.2446 72.8847 61.5781 72.4158C56.9116 71.947 50.5824 71.6836 43.9829 71.6836C37.3835 71.6836 31.0543 71.947 26.3878 72.4158C21.7212 72.8847 19.0996 73.5206 19.0996 74.1836Z" fill="#3B465D"/>
<path id="Vector_6" d="M13.5664 34.434C13.5664 42.6822 16.843 50.5926 22.6754 56.425C28.5078 62.2574 36.4182 65.534 44.6664 65.534C52.9146 65.534 60.825 62.2574 66.6574 56.425C72.4898 50.5926 75.7664 42.6822 75.7664 34.434C75.7664 26.1858 72.4898 18.2753 66.6574 12.443C60.825 6.61058 52.9146 3.33398 44.6664 3.33398C36.4182 3.33398 28.5078 6.61058 22.6754 12.443C16.843 18.2753 13.5664 26.1858 13.5664 34.434Z" stroke="#45413C" stroke-linecap="round" stroke-linejoin="round"/>
<path id="Vector_7" d="M52.4504 46.8496C50.1471 48.3825 47.4421 49.2003 44.6754 49.2003C41.9087 49.2003 39.2037 48.3825 36.9004 46.8496" stroke="#45413C" stroke-linecap="round"/>
<path id="Vector_8" d="M67.166 42.2005C67.166 43.5005 65.416 44.5339 63.2827 44.5339C61.1493 44.5339 59.3827 43.5005 59.3827 42.2005C59.3827 40.9005 61.0493 39.8672 63.2827 39.8672C65.516 39.8672 67.166 40.9172 67.166 42.2005ZM22.166 42.2005C22.166 43.5005 23.8327 44.5339 26.0493 44.5339C28.266 44.5339 29.9493 43.5005 29.9493 42.2005C29.9493 40.9005 28.1993 39.8672 26.0493 39.8672C23.8993 39.8672 22.166 40.9172 22.166 42.2005Z" fill="#FEE0B0"/>
<path id="Vector_9" d="M66.9497 39.866H57.8997C55.7723 39.871 53.7125 39.1193 52.0882 37.7454C50.4639 36.3715 49.381 34.4648 49.0331 32.366L47.7831 24.8827C47.6771 24.2439 47.7108 23.5898 47.8818 22.9653C48.0528 22.3408 48.357 21.7608 48.7735 21.265C49.19 20.7693 49.709 20.3697 50.2947 20.0937C50.8804 19.8176 51.5189 19.6718 52.1664 19.666H72.1664C72.7999 19.6642 73.4266 19.7966 74.0051 20.0545C74.5837 20.3124 75.1011 20.6901 75.5231 21.1625C75.9451 21.6349 76.2623 22.1914 76.4536 22.7953C76.6449 23.3992 76.7061 24.0368 76.6331 24.666L75.8331 31.8994C75.5807 34.083 74.5379 36.0988 72.9014 37.5665C71.2649 39.0341 69.1479 39.8521 66.9497 39.866Z" fill="#656769"/>
<path id="Vector_10" d="M49.0342 32.366C49.2399 33.575 49.6923 34.7287 50.3633 35.7552C51.0343 36.7817 51.9094 37.6591 52.9342 38.3327L71.6175 19.666H52.1675C51.5159 19.6645 50.8717 19.8051 50.2799 20.078C49.6881 20.3508 49.1629 20.7495 48.7409 21.246C48.3188 21.7426 48.0102 22.3252 47.8363 22.9533C47.6625 23.5814 47.6276 24.2398 47.7342 24.8827L49.0342 32.366Z" fill="#87898C"/>
<path id="Vector_11" d="M66.9497 39.866H57.8997C55.7723 39.871 53.7125 39.1193 52.0882 37.7454C50.4639 36.3715 49.381 34.4648 49.0331 32.366L47.7831 24.8827C47.6771 24.2439 47.7108 23.5898 47.8818 22.9653C48.0528 22.3408 48.357 21.7608 48.7735 21.265C49.19 20.7693 49.709 20.3697 50.2947 20.0937C50.8804 19.8176 51.5189 19.6718 52.1664 19.666H72.1664C72.7999 19.6642 73.4266 19.7966 74.0051 20.0545C74.5837 20.3124 75.1011 20.6901 75.5231 21.1625C75.9451 21.6349 76.2623 22.1914 76.4536 22.7953C76.6449 23.3992 76.7061 24.0368 76.6331 24.666L75.8331 31.8994C75.5807 34.083 74.5379 36.0988 72.9014 37.5665C71.2649 39.0341 69.1479 39.8521 66.9497 39.866Z" stroke="#45413C" stroke-linecap="round" stroke-linejoin="round"/>
<path id="Vector_12" d="M22.3831 39.866H31.4331C33.5605 39.8709 35.6204 39.1193 37.2446 37.7454C38.8689 36.3715 39.9518 34.4648 40.2997 32.366L41.5497 24.8827C41.6557 24.2439 41.622 23.5898 41.451 22.9653C41.28 22.3408 40.9758 21.7607 40.5593 21.265C40.1428 20.7693 39.6238 20.3697 39.0381 20.0937C38.4524 19.8176 37.8139 19.6717 37.1664 19.666H17.1664C16.5337 19.6668 15.9083 19.801 15.331 20.0598C14.7537 20.3186 14.2374 20.6962 13.8159 21.1681C13.3945 21.6399 13.0772 22.1953 12.8849 22.798C12.6925 23.4007 12.6294 24.0373 12.6997 24.666L13.5164 31.8993C13.7614 34.083 14.7998 36.1007 16.4343 37.5693C18.0688 39.0379 20.1857 39.8552 22.3831 39.866Z" fill="#656769"/>
<path id="Vector_13" d="M13.4497 31.8836C13.6179 33.3406 14.1403 34.7342 14.9712 35.9428C15.8021 37.1514 16.9163 38.1382 18.2164 38.8169L37.3497 19.6836H17.1664C16.5337 19.6844 15.9083 19.8185 15.331 20.0773C14.7537 20.3362 14.2374 20.7138 13.8159 21.1856C13.3945 21.6575 13.0772 22.2129 12.8849 22.8156C12.6925 23.4183 12.6294 24.0548 12.6997 24.6836L13.4497 31.8836Z" fill="#87898C"/>
<path id="Vector_14" d="M22.3831 39.866H31.4331C33.5605 39.8709 35.6204 39.1193 37.2446 37.7454C38.8689 36.3715 39.9518 34.4648 40.2997 32.366L41.5497 24.8827C41.6557 24.2439 41.622 23.5898 41.451 22.9653C41.28 22.3408 40.9758 21.7607 40.5593 21.265C40.1428 20.7693 39.6238 20.3697 39.0381 20.0937C38.4524 19.8176 37.8139 19.6717 37.1664 19.666H17.1664C16.5337 19.6668 15.9083 19.801 15.331 20.0598C14.7537 20.3186 14.2374 20.6962 13.8159 21.1681C13.3945 21.6399 13.0772 22.1953 12.8849 22.798C12.6925 23.4007 12.6294 24.0373 12.6997 24.666L13.5164 31.8993C13.7614 34.083 14.7998 36.1007 16.4343 37.5693C18.0688 39.0379 20.1857 39.8552 22.3831 39.866Z" stroke="#45413C" stroke-linecap="round" stroke-linejoin="round"/>
<path id="Vector_15" d="M49.2999 20.767C47.8626 20.0431 46.2758 19.666 44.6665 19.666C43.0573 19.666 41.4704 20.0431 40.0332 20.767" stroke="#45413C" stroke-linecap="round" stroke-linejoin="round"/>
</g>
<defs>
<clipPath id="clip0_743_1188">
<rect width="80" height="80" fill="white" transform="translate(0.5)"/>
</clipPath>
</defs>
</svg>
