<svg width="81" height="80" viewBox="0 0 81 80" fill="none" xmlns="http://www.w3.org/2000/svg">
<g id="streamline-emojis:face-with-monocle">
<path id="Vector" opacity="0.15" d="M13.834 75.834C13.834 76.497 16.6435 77.1329 21.6445 77.6018C26.6454 78.0706 33.4282 78.334 40.5007 78.334C47.5731 78.334 54.3559 78.0706 59.3568 77.6018C64.3578 77.1329 67.1673 76.497 67.1673 75.834C67.1673 75.1709 64.3578 74.5351 59.3568 74.0662C54.3559 73.5974 47.5731 73.334 40.5007 73.334C33.4282 73.334 26.6454 73.5974 21.6445 74.0662C16.6435 74.5351 13.834 75.1709 13.834 75.834Z" fill="#3B465D"/>
<path id="Vector_2" d="M7.16602 35.8333C7.16602 44.6739 10.6779 53.1523 16.9291 59.4036C23.1803 65.6548 31.6588 69.1667 40.4993 69.1667C49.3399 69.1667 57.8184 65.6548 64.0696 59.4036C70.3208 53.1523 73.8327 44.6739 73.8327 35.8333C73.8327 26.9928 70.3208 18.5143 64.0696 12.2631C57.8184 6.01189 49.3399 2.5 40.4993 2.5C31.6588 2.5 23.1803 6.01189 16.9291 12.2631C10.6779 18.5143 7.16602 26.9928 7.16602 35.8333Z" fill="#FCA311"/>
<path id="Vector_3" d="M40.4994 2.5C33.9067 2.5 27.462 4.45497 21.9804 8.11768C16.4987 11.7804 12.2263 16.9864 9.70338 23.0772C7.18046 29.1681 6.52035 35.8703 7.80652 42.3363C9.0927 48.8024 12.2674 54.7418 16.9291 59.4036C21.5909 64.0653 27.5303 67.24 33.9964 68.5262C40.4624 69.8124 47.1646 69.1522 53.2555 66.6293C59.3463 64.1064 64.5523 59.834 68.215 54.3523C71.8777 48.8707 73.8327 42.426 73.8327 35.8333C73.8327 26.9928 70.3208 18.5143 64.0696 12.2631C57.8184 6.01189 49.3399 2.5 40.4994 2.5ZM40.4994 64.1667C34.4835 64.1667 28.6028 62.3828 23.6008 59.0405C18.5988 55.6983 14.7002 50.9479 12.398 45.39C10.0959 39.832 9.49351 33.7163 10.6671 27.816C11.8408 21.9157 14.7377 16.496 18.9915 12.2422C23.2454 7.98832 28.6651 5.09142 34.5654 3.91778C40.4656 2.74415 46.5814 3.3465 52.1393 5.64866C57.6972 7.95083 62.4477 11.8494 65.7899 16.8514C69.1321 21.8534 70.916 27.7342 70.916 33.75C70.916 41.817 67.7114 49.5536 62.0072 55.2578C56.303 60.9621 48.5664 64.1667 40.4994 64.1667Z" fill="#D2880E"/>
<path id="Vector_4" d="M30.5 9.16602C30.5 9.82906 31.5536 10.4649 33.4289 10.9338C35.3043 11.4026 37.8478 11.666 40.5 11.666C43.1522 11.666 45.6957 11.4026 47.5711 10.9338C49.4464 10.4649 50.5 9.82906 50.5 9.16602C50.5 8.50297 49.4464 7.86709 47.5711 7.39825C45.6957 6.92941 43.1522 6.66602 40.5 6.66602C37.8478 6.66602 35.3043 6.92941 33.4289 7.39825C31.5536 7.86709 30.5 8.50297 30.5 9.16602Z" fill="#FED188"/>
<path id="Vector_5" d="M7.16602 35.8333C7.16602 44.6739 10.6779 53.1523 16.9291 59.4036C23.1803 65.6548 31.6588 69.1667 40.4993 69.1667C49.3399 69.1667 57.8184 65.6548 64.0696 59.4036C70.3208 53.1523 73.8327 44.6739 73.8327 35.8333C73.8327 26.9928 70.3208 18.5143 64.0696 12.2631C57.8184 6.01189 49.3399 2.5 40.4993 2.5C31.6588 2.5 23.1803 6.01189 16.9291 12.2631C10.6779 18.5143 7.16602 26.9928 7.16602 35.8333Z" stroke="#45413C" stroke-linecap="round" stroke-linejoin="round"/>
<path id="Vector_6" d="M64.6673 44.166C64.6673 45.5493 62.8007 46.666 60.5007 46.666C58.2007 46.666 56.334 45.5493 56.334 44.166C56.334 42.7827 58.2007 41.666 60.5007 41.666C62.8007 41.666 64.6673 42.7827 64.6673 44.166ZM16.334 44.166C16.334 45.5493 18.2007 46.666 20.5007 46.666C22.8007 46.666 24.6673 45.5493 24.6673 44.166C24.6673 42.7827 22.8007 41.666 20.5007 41.666C18.2007 41.666 16.334 42.7827 16.334 44.166Z" fill="#FEE0B0"/>
<path id="Vector_7" d="M24.6673 29.1667C24.6673 29.4963 24.5696 29.8185 24.3864 30.0926C24.2033 30.3667 23.943 30.5803 23.6385 30.7065C23.3339 30.8326 22.9988 30.8656 22.6755 30.8013C22.3522 30.737 22.0552 30.5783 21.8221 30.3452C21.5891 30.1121 21.4303 29.8151 21.366 29.4918C21.3017 29.1685 21.3347 28.8334 21.4609 28.5289C21.587 28.2243 21.8006 27.964 22.0747 27.7809C22.3488 27.5977 22.671 27.5 23.0007 27.5C23.4427 27.5 23.8666 27.6756 24.1792 27.9882C24.4917 28.3007 24.6673 28.7246 24.6673 29.1667ZM56.334 34.1667C56.334 34.4963 56.4317 34.8185 56.6149 35.0926C56.798 35.3667 57.0583 35.5803 57.3628 35.7065C57.6674 35.8326 58.0025 35.8656 58.3258 35.8013C58.6491 35.737 58.9461 35.5783 59.1792 35.3452C59.4123 35.1121 59.571 34.8151 59.6353 34.4918C59.6996 34.1685 59.6666 33.8334 59.5404 33.5289C59.4143 33.2243 59.2007 32.964 58.9266 32.7809C58.6525 32.5977 58.3303 32.5 58.0006 32.5C57.5586 32.5 57.1347 32.6756 56.8221 32.9882C56.5096 33.3007 56.334 33.7246 56.334 34.1667Z" fill="#45413C" stroke="#45413C" stroke-linecap="round" stroke-linejoin="round"/>
<path id="Vector_8" d="M71.334 23.334H73.834C74.497 23.334 75.1329 23.5974 75.6018 24.0662C76.0706 24.5351 76.334 25.1709 76.334 25.834V28.334C76.334 28.997 76.0706 29.6329 75.6018 30.1017C75.1329 30.5706 74.497 30.834 73.834 30.834H71.334V23.334Z" fill="#87898C"/>
<path id="Vector_9" d="M73.834 23.334H71.334V25.834H73.834C74.497 25.834 75.1329 26.0974 75.6018 26.5662C76.0706 27.0351 76.334 27.6709 76.334 28.334V25.834C76.334 25.1709 76.0706 24.5351 75.6018 24.0662C75.1329 23.5974 74.497 23.334 73.834 23.334Z" fill="#BDBEC0"/>
<path id="Vector_10" d="M71.334 23.334H73.834C74.497 23.334 75.1329 23.5974 75.6018 24.0662C76.0706 24.5351 76.334 25.1709 76.334 25.834V28.334C76.334 28.997 76.0706 29.6329 75.6018 30.1017C75.1329 30.5706 74.497 30.834 73.834 30.834H71.334V23.334Z" stroke="#45413C" stroke-linecap="round" stroke-linejoin="round"/>
<path id="Vector_11" d="M44.666 27.5007C44.666 29.361 45.0324 31.2032 45.7444 32.922C46.4563 34.6408 47.4998 36.2025 48.8153 37.518C50.1308 38.8335 51.6926 39.877 53.4113 40.5889C55.1301 41.3009 56.9723 41.6673 58.8327 41.6673C60.6931 41.6673 62.5352 41.3009 64.254 40.5889C65.9728 39.877 67.5345 38.8335 68.85 37.518C70.1655 36.2025 71.209 34.6408 71.921 32.922C72.6329 31.2032 72.9993 29.361 72.9993 27.5007C72.9993 25.6403 72.6329 23.7981 71.921 22.0793C71.209 20.3605 70.1655 18.7988 68.85 17.4833C67.5345 16.1678 65.9728 15.1243 64.254 14.4124C62.5352 13.7004 60.6931 13.334 58.8327 13.334C56.9723 13.334 55.1301 13.7004 53.4113 14.4124C51.6926 15.1243 50.1308 16.1678 48.8153 17.4833C47.4998 18.7988 46.4563 20.3605 45.7444 22.0793C45.0324 23.7981 44.666 25.6403 44.666 27.5007Z" fill="#87898C"/>
<path id="Vector_12" d="M58.8327 16.6673C62.301 16.6677 65.6487 17.9404 68.2413 20.2443C70.8339 22.5482 72.4913 25.7231 72.8993 29.1673C72.8993 28.6173 72.9993 28.0673 72.9993 27.5007C72.9993 23.7434 71.5068 20.1401 68.85 17.4833C66.1933 14.8265 62.5899 13.334 58.8327 13.334C55.0754 13.334 51.4721 14.8265 48.8153 17.4833C46.1586 20.1401 44.666 23.7434 44.666 27.5007C44.666 28.0673 44.666 28.6173 44.766 29.1673C45.1741 25.7231 46.8314 22.5482 49.424 20.2443C52.0166 17.9404 55.3643 16.6677 58.8327 16.6673Z" fill="#BDBEC0"/>
<path id="Vector_13" d="M44.666 27.5007C44.666 29.361 45.0324 31.2032 45.7444 32.922C46.4563 34.6408 47.4998 36.2025 48.8153 37.518C50.1308 38.8335 51.6926 39.877 53.4113 40.5889C55.1301 41.3009 56.9723 41.6673 58.8327 41.6673C60.6931 41.6673 62.5352 41.3009 64.254 40.5889C65.9728 39.877 67.5345 38.8335 68.85 37.518C70.1655 36.2025 71.209 34.6408 71.921 32.922C72.6329 31.2032 72.9993 29.361 72.9993 27.5007C72.9993 25.6403 72.6329 23.7981 71.921 22.0793C71.209 20.3605 70.1655 18.7988 68.85 17.4833C67.5345 16.1678 65.9728 15.1243 64.254 14.4124C62.5352 13.7004 60.6931 13.334 58.8327 13.334C56.9723 13.334 55.1301 13.7004 53.4113 14.4124C51.6926 15.1243 50.1308 16.1678 48.8153 17.4833C47.4998 18.7988 46.4563 20.3605 45.7444 22.0793C45.0324 23.7981 44.666 25.6403 44.666 27.5007Z" stroke="#45413C" stroke-linecap="round" stroke-linejoin="round"/>
<path id="Vector_14" d="M48 27.4993C48 30.3725 49.1414 33.128 51.173 35.1597C53.2047 37.1913 55.9602 38.3327 58.8333 38.3327C61.7065 38.3327 64.462 37.1913 66.4937 35.1597C68.5253 33.128 69.6667 30.3725 69.6667 27.4993C69.6667 24.6262 68.5253 21.8707 66.4937 19.839C64.462 17.8074 61.7065 16.666 58.8333 16.666C55.9602 16.666 53.2047 17.8074 51.173 19.839C49.1414 21.8707 48 24.6262 48 27.4993Z" fill="#00B8F0"/>
<path id="Vector_15" d="M58.8338 16.666C56.9389 16.6666 55.0774 17.1642 53.435 18.1091C51.7925 19.054 50.4267 20.4132 49.4737 22.0509C48.5207 23.6887 48.014 25.5478 48.0041 27.4426C47.9941 29.3374 48.4814 31.2017 49.4171 32.8493L62.4505 17.2993C61.2896 16.8843 60.0666 16.6701 58.8338 16.666Z" fill="#4ACFFF"/>
<path id="Vector_16" d="M76.334 26.666C76.334 26.666 78.834 26.766 78.834 29.9993V58.3327C78.9042 59.226 78.7799 60.124 78.4697 60.9647C78.1595 61.8054 77.6707 62.5688 77.0371 63.2025C76.4035 63.8361 75.64 64.3249 74.7993 64.6351C73.9586 64.9453 73.0607 65.0696 72.1673 64.9993C71.2713 65.0813 70.3683 64.9652 69.5222 64.6591C68.6761 64.3531 67.9077 63.8647 67.2715 63.2285C66.6353 62.5922 66.1469 61.8239 65.8409 60.9778C65.5348 60.1317 65.4187 59.2287 65.5006 58.3327V57.8827M35.5007 47.6993C37.0634 46.9681 38.7761 46.6142 40.5007 46.666C42.2252 46.6142 43.9379 46.9681 45.5007 47.6993M18.834 24.9993C18.834 24.9993 19.534 20.8327 23.0007 20.8327C26.4673 20.8327 27.1673 24.9993 27.1673 24.9993M48.0007 27.4993C48.0007 30.3725 49.142 33.128 51.1737 35.1597C53.2053 37.1913 55.9608 38.3327 58.834 38.3327C61.7072 38.3327 64.4627 37.1913 66.4943 35.1597C68.526 33.128 69.6673 30.3725 69.6673 27.4993C69.6673 24.6262 68.526 21.8707 66.4943 19.839C64.4627 17.8074 61.7072 16.666 58.834 16.666C55.9608 16.666 53.2053 17.8074 51.1737 19.839C49.142 21.8707 48.0007 24.6262 48.0007 27.4993Z" stroke="#45413C" stroke-linecap="round" stroke-linejoin="round"/>
</g>
</svg>
