<svg width="80" height="80" viewBox="0 0 80 80" fill="none" xmlns="http://www.w3.org/2000/svg">
<g id="streamline-emojis:thinking-face">
<path id="Vector" d="M6.66602 35.8333C6.66602 44.6739 10.1779 53.1523 16.4291 59.4036C22.6803 65.6548 31.1588 69.1667 39.9993 69.1667C48.8399 69.1667 57.3184 65.6548 63.5696 59.4036C69.8208 53.1523 73.3327 44.6739 73.3327 35.8333C73.3327 26.9928 69.8208 18.5143 63.5696 12.2631C57.3184 6.01189 48.8399 2.5 39.9993 2.5C31.1588 2.5 22.6803 6.01189 16.4291 12.2631C10.1779 18.5143 6.66602 26.9928 6.66602 35.8333Z" fill="#FCA311"/>
<path id="Vector_2" d="M39.9994 2.5C33.4067 2.5 26.962 4.45497 21.4804 8.11768C15.9987 11.7804 11.7263 16.9864 9.20338 23.0772C6.68046 29.1681 6.02035 35.8703 7.30652 42.3363C8.5927 48.8024 11.7674 54.7418 16.4291 59.4036C21.0909 64.0653 27.0303 67.24 33.4964 68.5262C39.9624 69.8124 46.6646 69.1522 52.7555 66.6293C58.8463 64.1064 64.0523 59.834 67.715 54.3523C71.3777 48.8707 73.3327 42.426 73.3327 35.8333C73.3327 26.9928 69.8208 18.5143 63.5696 12.2631C57.3184 6.01189 48.8399 2.5 39.9994 2.5ZM39.9994 64.1667C33.9835 64.1667 28.1028 62.3828 23.1008 59.0405C18.0988 55.6983 14.2002 50.9479 11.898 45.39C9.59586 39.832 8.99351 33.7163 10.1671 27.816C11.3408 21.9157 14.2377 16.496 18.4915 12.2422C22.7454 7.98832 28.1651 5.09142 34.0654 3.91778C39.9656 2.74415 46.0814 3.3465 51.6393 5.64866C57.1972 7.95083 61.9477 11.8494 65.2899 16.8514C68.6321 21.8534 70.416 27.7342 70.416 33.75C70.416 41.817 67.2114 49.5536 61.5072 55.2578C55.803 60.9621 48.0664 64.1667 39.9994 64.1667Z" fill="#D2880E"/>
<path id="Vector_3" d="M30 9.16602C30 9.82906 31.0536 10.4649 32.9289 10.9338C34.8043 11.4026 37.3478 11.666 40 11.666C42.6522 11.666 45.1957 11.4026 47.0711 10.9338C48.9464 10.4649 50 9.82906 50 9.16602C50 8.50297 48.9464 7.86709 47.0711 7.39825C45.1957 6.92941 42.6522 6.66602 40 6.66602C37.3478 6.66602 34.8043 6.92941 32.9289 7.39825C31.0536 7.86709 30 8.50297 30 9.16602Z" fill="#FED188"/>
<path id="Vector_4" opacity="0.15" d="M13.334 75.834C13.334 76.497 16.1435 77.1329 21.1445 77.6018C26.1454 78.0706 32.9282 78.334 40.0007 78.334C47.0731 78.334 53.8559 78.0706 58.8568 77.6018C63.8578 77.1329 66.6673 76.497 66.6673 75.834C66.6673 75.1709 63.8578 74.5351 58.8568 74.0662C53.8559 73.5974 47.0731 73.334 40.0007 73.334C32.9282 73.334 26.1454 73.5974 21.1445 74.0662C16.1435 74.5351 13.334 75.1709 13.334 75.834Z" fill="#3B465D"/>
<path id="Vector_5" d="M6.66602 35.8333C6.66602 44.6739 10.1779 53.1523 16.4291 59.4036C22.6803 65.6548 31.1588 69.1667 39.9993 69.1667C48.8399 69.1667 57.3184 65.6548 63.5696 59.4036C69.8208 53.1523 73.3327 44.6739 73.3327 35.8333C73.3327 26.9928 69.8208 18.5143 63.5696 12.2631C57.3184 6.01189 48.8399 2.5 39.9993 2.5C31.1588 2.5 22.6803 6.01189 16.4291 12.2631C10.1779 18.5143 6.66602 26.9928 6.66602 35.8333Z" stroke="#45413C" stroke-linecap="round" stroke-linejoin="round"/>
<path id="Vector_6" d="M64.1673 39.166C64.1673 40.5493 62.3007 41.666 60.0007 41.666C57.7007 41.666 55.834 40.5493 55.834 39.166C55.834 37.7827 57.7007 36.666 60.0007 36.666C62.3007 36.666 64.1673 37.7827 64.1673 39.166ZM15.834 39.166C15.834 40.5493 17.7007 41.666 20.0007 41.666C22.3007 41.666 24.1673 40.5493 24.1673 39.166C24.1673 37.7827 22.3007 36.666 20.0007 36.666C17.7007 36.666 15.834 37.7827 15.834 39.166Z" fill="#FEE0B0"/>
<path id="Vector_7" d="M50.5827 50.0007C48.1327 47.5174 43.566 45.834 38.3327 45.834C36.9349 45.8314 35.5399 45.9598 34.166 46.2174" stroke="#45413C" stroke-linecap="round" stroke-linejoin="round"/>
<path id="Vector_8" d="M29.4492 31.6667C29.4492 32.1087 29.6248 32.5326 29.9374 32.8452C30.2499 33.1577 30.6739 33.3333 31.1159 33.3333C31.5579 33.3333 31.9818 33.1577 32.2944 32.8452C32.607 32.5326 32.7826 32.1087 32.7826 31.6667C32.7826 31.2246 32.607 30.8007 32.2944 30.4882C31.9818 30.1756 31.5579 30 31.1159 30C30.6739 30 30.2499 30.1756 29.9374 30.4882C29.6248 30.8007 29.4492 31.2246 29.4492 31.6667ZM44.9992 31.7167C44.9992 32.1587 45.1748 32.5826 45.4874 32.8952C45.7999 33.2077 46.2239 33.3833 46.6659 33.3833C47.1079 33.3833 47.5318 33.2077 47.8444 32.8952C48.157 32.5826 48.3326 32.1587 48.3326 31.7167C48.3326 31.2746 48.157 30.8507 47.8444 30.5382C47.5318 30.2256 47.1079 30.05 46.6659 30.05C46.2239 30.05 45.7999 30.2256 45.4874 30.5382C45.1748 30.8507 44.9992 31.2746 44.9992 31.7167Z" fill="#45413C" stroke="#45413C" stroke-linecap="round" stroke-linejoin="round"/>
<path id="Vector_9" d="M34.9992 25.8325C34.9992 25.8325 29.9992 18.3325 24.4492 20.8325M55.8326 25.8325C52.2011 27.4575 48.1613 27.94 44.2492 27.2158" stroke="#45413C" stroke-linecap="round" stroke-linejoin="round"/>
</g>
</svg>
