<svg width="40" height="40" viewBox="0 0 40 40" fill="none" xmlns="http://www.w3.org/2000/svg">
<g id="tabler:edit">
<g id="Group">
<path id="Vector" d="M11.6665 11.666H9.99984C9.11578 11.666 8.26794 12.0172 7.64281 12.6423C7.01769 13.2674 6.6665 14.1153 6.6665 14.9993V29.9993C6.6665 30.8834 7.01769 31.7312 7.64281 32.3564C8.26794 32.9815 9.11578 33.3327 9.99984 33.3327H24.9998C25.8839 33.3327 26.7317 32.9815 27.3569 32.3564C27.982 31.7312 28.3332 30.8834 28.3332 29.9993V28.3327" stroke="#3772FF" stroke-width="4" stroke-linecap="round" stroke-linejoin="round"/>
<path id="Vector_2" d="M26.6667 8.33351L31.6667 13.3335M33.975 10.9752C34.6314 10.3188 35.0002 9.42848 35.0002 8.50018C35.0002 7.57187 34.6314 6.68159 33.975 6.02518C33.3186 5.36877 32.4283 5 31.5 5C30.5717 5 29.6814 5.36877 29.025 6.02518L15 20.0002V25.0002H20L33.975 10.9752Z" stroke="#3772FF" stroke-width="4" stroke-linecap="round" stroke-linejoin="round"/>
</g>
</g>
</svg>
