<svg width="24" height="24" viewBox="0 0 24 24" fill="none" xmlns="http://www.w3.org/2000/svg">
<g id="tabler:send">
<path id="Vector" d="M9.9997 14L20.9997 3M9.9997 14L13.4997 21C13.5436 21.0957 13.614 21.1769 13.7027 21.2338C13.7913 21.2906 13.8944 21.3209 13.9997 21.3209C14.105 21.3209 14.2081 21.2906 14.2968 21.2338C14.3854 21.1769 14.4558 21.0957 14.4997 21L20.9997 3M9.9997 14L2.9997 10.5C2.90396 10.4561 2.82283 10.3857 2.76595 10.2971C2.70907 10.2084 2.67883 10.1053 2.67883 10C2.67883 9.89468 2.70907 9.79158 2.76595 9.70295C2.82283 9.61431 2.90396 9.54387 2.9997 9.5L20.9997 3" stroke="#14213D" stroke-width="1.71429" stroke-linecap="round" stroke-linejoin="round"/>
</g>
</svg>
