<svg width="13" height="14" viewBox="0 0 13 14" fill="none" xmlns="http://www.w3.org/2000/svg">
<path id="Vector" d="M4.66602 13.3333H9.99935V11.6667C11.606 10.58 12.666 8.74667 12.666 6.66667V1.33333C12.666 0.979711 12.5255 0.640573 12.2755 0.390524C12.0254 0.140476 11.6863 0 11.3327 0H8.66602C8.31239 0 7.97326 0.140476 7.72321 0.390524C7.47316 0.640573 7.33268 0.979711 7.33268 1.33333V6.66667H0.666016C0.666016 8.72667 1.99935 10.6667 4.66602 11.6667V13.3333ZM2.19268 8H11.1393C10.9521 8.62747 10.6352 9.20863 10.2091 9.70589C9.78306 10.2031 9.25735 10.6054 8.66602 10.8867V12H5.99935V10.8867C4.66602 10.6667 2.57268 9.27333 2.19268 8ZM8.66602 1.33333H11.3327V6.66667H8.66602V1.33333ZM9.33268 2V4H10.666V2H9.33268Z" fill="#0A111F"/>
</svg>
