<svg width="88" height="88" viewBox="0 0 88 88" fill="none" xmlns="http://www.w3.org/2000/svg">
<g id="uiw:picture" clip-path="url(#clip0_454_4070)">
<g id="Vector" filter="url(#filter0_d_454_4070)">
<path d="M83.5623 9.51978C84.5976 9.5082 85.5951 9.90809 86.3357 10.6316C87.0763 11.3551 87.4994 12.343 87.512 13.3783V75.1016C87.4994 76.1369 87.0763 77.1248 86.3357 77.8484C85.5951 78.5719 84.5976 78.9717 83.5623 78.9602H4.65572C3.62044 78.9717 2.62291 78.5719 1.88231 77.8484C1.14172 77.1248 0.718644 76.1369 0.706055 75.1016L0.706055 13.3826C0.711723 12.8697 0.818384 12.3628 1.01995 11.891C1.22151 11.4193 1.51403 10.9918 1.88079 10.6331C2.24756 10.2744 2.68139 9.99148 3.15752 9.80045C3.63365 9.60942 4.14274 9.51404 4.65572 9.51978H83.5623ZM24.2131 37.3715L6.5915 54.9149V73.218H81.6092V66.9983L67.7202 53.4566L55.6672 63.5825C54.9467 64.0903 54.2523 64.3117 53.5839 64.2552C52.8794 64.1845 52.214 63.8981 51.6785 63.4349L24.2131 37.3715ZM81.5918 15.2967H6.61754V46.677L22.2686 31.091C22.812 30.6589 23.4841 30.4206 24.1784 30.414C24.8511 30.414 25.4414 30.618 25.9579 31.0216L53.8703 57.4453L66.0449 47.2456C66.5693 46.8421 67.2105 46.6198 67.8721 46.6119C68.5296 46.6169 69.1671 46.8381 69.6864 47.2413L81.5875 58.8082V15.2924L81.5918 15.2967ZM66.9954 23.5389C70.2636 23.5389 72.9112 26.1301 72.9112 29.3245C72.9112 32.519 70.2636 35.1102 66.9954 35.1102C63.7228 35.1102 61.0752 32.519 61.0752 29.3245C61.0752 26.1301 63.7228 23.5389 66.9954 23.5389Z" fill="#FCA311"/>
</g>
</g>
<defs>
<filter id="filter0_d_454_4070" x="-27.4472" y="9.51953" width="143.112" height="125.748" filterUnits="userSpaceOnUse" color-interpolation-filters="sRGB">
<feFlood flood-opacity="0" result="BackgroundImageFix"/>
<feColorMatrix in="SourceAlpha" type="matrix" values="0 0 0 0 0 0 0 0 0 0 0 0 0 0 0 0 0 0 127 0" result="hardAlpha"/>
<feOffset dy="28.1533"/>
<feGaussianBlur stdDeviation="14.0766"/>
<feComposite in2="hardAlpha" operator="out"/>
<feColorMatrix type="matrix" values="0 0 0 0 0.0156863 0 0 0 0 0.0258824 0 0 0 0 0.0478431 0 0 0 0.1 0"/>
<feBlend mode="overlay" in2="BackgroundImageFix" result="effect1_dropShadow_454_4070"/>
<feBlend mode="normal" in="SourceGraphic" in2="effect1_dropShadow_454_4070" result="shape"/>
</filter>
<clipPath id="clip0_454_4070">
<rect width="86.8059" height="86.8059" fill="white" transform="translate(0.706055 0.839844)"/>
</clipPath>
</defs>
</svg>
