<svg width="11" height="8" viewBox="0 0 11 8" fill="none" xmlns="http://www.w3.org/2000/svg">
<path id="Vector" d="M10.2917 3.33982V1.83398C10.2917 0.940234 9.56042 0.208984 8.66667 0.208984H6.5C6.08292 0.208984 5.70375 0.371485 5.41667 0.631484C5.12958 0.371485 4.75042 0.208984 4.33333 0.208984H2.16667C1.27292 0.208984 0.541667 0.940234 0.541667 1.83398V3.33982C0.21125 3.63773 0 4.06565 0 4.54232V7.25065C0 7.54857 0.24375 7.79232 0.541667 7.79232C0.839583 7.79232 1.08333 7.54857 1.08333 7.25065V6.70898H9.75V7.25065C9.75 7.54857 9.99375 7.79232 10.2917 7.79232C10.5896 7.79232 10.8333 7.54857 10.8333 7.25065V4.54232C10.8333 4.06565 10.6221 3.63773 10.2917 3.33982ZM6.5 1.29232H8.66667C8.96458 1.29232 9.20833 1.53607 9.20833 1.83398V2.91732H5.95833V1.83398C5.95833 1.53607 6.20208 1.29232 6.5 1.29232ZM1.625 1.83398C1.625 1.53607 1.86875 1.29232 2.16667 1.29232H4.33333C4.63125 1.29232 4.875 1.53607 4.875 1.83398V2.91732H1.625V1.83398ZM1.08333 5.62565V4.54232C1.08333 4.2444 1.32708 4.00065 1.625 4.00065H9.20833C9.50625 4.00065 9.75 4.2444 9.75 4.54232V5.62565H1.08333Z" fill="#3772FF"/>
</svg>
