<svg width="11" height="12" viewBox="0 0 11 12" fill="none" xmlns="http://www.w3.org/2000/svg">
<path id="Vector" d="M10.3757 7.08398V7.62565C10.3757 8.66023 9.79607 9.5594 8.94023 10.0144L9.29232 11.4173H8.20898L7.93815 10.334H3.06315L2.79232 11.4173H1.70898L2.06107 10.0144C1.62729 9.7843 1.26444 9.44031 1.01153 9.01942C0.758618 8.59854 0.62521 8.11668 0.625651 7.62565V7.08398H0.0839844V6.00065H9.83398V2.20898C9.83398 2.06533 9.77692 1.92755 9.67533 1.82597C9.57375 1.72439 9.43598 1.66732 9.29232 1.66732C9.02148 1.66732 8.81565 1.85148 8.75065 2.09523C9.0919 2.38773 9.29232 2.82107 9.29232 3.29232H6.04232C6.04232 2.86134 6.21352 2.44802 6.51827 2.14327C6.82302 1.83852 7.23634 1.66732 7.66732 1.66732H7.7594C7.98148 1.03898 8.58273 0.583984 9.29232 0.583984C9.72329 0.583984 10.1366 0.755189 10.4414 1.05994C10.7461 1.36468 10.9173 1.77801 10.9173 2.20898V7.08398H10.3757ZM9.29232 7.08398H1.70898V7.62565C1.70898 8.05663 1.88019 8.46995 2.18494 8.7747C2.48968 9.07945 2.90301 9.25065 3.33398 9.25065H7.66732C8.09829 9.25065 8.51162 9.07945 8.81637 8.7747C9.12111 8.46995 9.29232 8.05663 9.29232 7.62565V7.08398Z" fill="#3772FF"/>
</svg>
