<svg width="48" height="48" viewBox="0 0 48 48" fill="none" xmlns="http://www.w3.org/2000/svg">
<g id="vuesax/linear/verify">
<g id="verify">
<path id="Vector" d="M16.7598 24.0002L21.5798 28.8402L31.2398 19.1602" stroke="#3772FF" stroke-width="2" stroke-linecap="round" stroke-linejoin="round"/>
<path id="Vector_2" d="M21.4998 4.90062C22.8798 3.72063 25.1398 3.72063 26.5398 4.90062L29.6998 7.62062C30.2998 8.14062 31.4198 8.56063 32.2198 8.56063H35.6198C37.7398 8.56063 39.4798 10.3006 39.4798 12.4206V15.8206C39.4798 16.6006 39.8998 17.7406 40.4198 18.3406L43.1398 21.5006C44.3198 22.8806 44.3198 25.1406 43.1398 26.5406L40.4198 29.7006C39.8998 30.3006 39.4798 31.4206 39.4798 32.2206V35.6206C39.4798 37.7406 37.7398 39.4806 35.6198 39.4806H32.2198C31.4398 39.4806 30.2998 39.9006 29.6998 40.4206L26.5398 43.1406C25.1598 44.3206 22.8998 44.3206 21.4998 43.1406L18.3398 40.4206C17.7398 39.9006 16.6198 39.4806 15.8198 39.4806H12.3598C10.2398 39.4806 8.49977 37.7406 8.49977 35.6206V32.2006C8.49977 31.4206 8.07977 30.3006 7.57977 29.7006L4.87977 26.5206C3.71977 25.1406 3.71977 22.9006 4.87977 21.5206L7.57977 18.3406C8.07977 17.7406 8.49977 16.6206 8.49977 15.8406V12.4006C8.49977 10.2806 10.2398 8.54062 12.3598 8.54062H15.8198C16.5998 8.54062 17.7398 8.12062 18.3398 7.60062L21.4998 4.90062Z" stroke="#3772FF" stroke-width="2" stroke-linecap="round" stroke-linejoin="round"/>
</g>
</g>
</svg>
